# xmcd
#
# Track frame offsets: 
#        150
#        18250
#        31992
#        44142
#        61752
#        78272
#        90577
#        104157
#        116180
#        130505
#
# Disc length: 1957 seconds
#
# Revision: 3
# Processed by: cddbd v1.5PL3 Copyright (c) Steve Scherf et al.
# Submitted via: ExactAudioCopy v0.95a1
#
DISCID=7e07a30a
DTITLE=Clint Black - No Time To Kill
DYEAR=1993
DGENRE=Country
TTITLE0=No Time To Kill
TTITLE1=Thinkin' Again
TTITLE2=A Good Run Of Bad Luck
TTITLE3=State Of Mind
TTITLE4=A Bad Goodbye
TTITLE5=Back To Back
TTITLE6=Half The Man
TTITLE7=I'll Take Texas
TTITLE8=Happiness Alone
TTITLE9=Tuckered Out
EXTD=ID3G:   2
EXTT0=
EXTT1=
EXTT2=
EXTT3=
EXTT4=
EXTT5=
EXTT6=
EXTT7=
EXTT8=
EXTT9=
PLAYORDER=
